<svg version="1.2" xmlns="http://www.w3.org/2000/svg" viewBox="0 0 110 75" width="110" height="75">
	<title>Shape 2</title>
	<defs>
		<filter x="-50%" y="-50%" width="200%" height="200%" id="f1" ><feDropShadow dx="-3.061616997868383e-16" dy="5" stdDeviation="0" flood-color="#b99401" flood-opacity=".7"/></filter>
	</defs>
	<style>
		.s0 { filter: url(#f1);fill: #f5c505 } 
	</style>
	<path id="Shape 2" class="s0" d="m82.7 75h-57.9c-13.1 0-23.8-10.5-23.8-23.5c0-10.7 7.2-19.6 17.1-22.5c0-0.4-0.1-0.7-0.1-1.1c0-9.3 7.7-16.8 17.1-16.8c1.8 0 3.6 0.4 5.3 0.9c5-6.6 12.9-11 21.9-11c13 0 23.8 8.9 26.5 20.9c12.1 2.7 21.2 13.4 21.2 26.2c0 14.9-12.2 26.9-27.3 26.9zm-20.4-26.9v-20.2h-13.6v20.2h-10.4l17.2 17l17.2-17z" />
</svg>