<svg version="1.2" xmlns="http://www.w3.org/2000/svg" viewBox="0 0 85 85" width="85" height="85">
	<title>Shape 8 copy 3</title>
	<style>
		.s0 { fill: #f5c505 } 
	</style>
	<path id="Shape 8 copy 3" class="s0" d="m1 56l13.1-13.5l-13.1-13.5h11.1l13.1 13.5l-13.1 13.5zm16.8 0l13.1-13.5l-13.1-13.5h11.1l13.1 13.5l-13.1 13.5zm55.1 0l-13.1-13.5l13.1-13.5h11.1l-13.1 13.5l13.1 13.5zm-16.8 0l-13.1-13.5l13.1-13.5h11.1l-13.1 13.5l13.1 13.5zm-27.1-55l13.5 13.1l13.5-13.1v11.1l-13.5 13.1l-13.5-13.1zm0 16.8l13.5 13.1l13.5-13.1v11.1l-13.5 13.1l-13.5-13.1zm0 55.1l13.5-13.1l13.5 13.1v11.1l-13.5-13.1l-13.5 13.1zm0-16.8l13.5-13.1l13.5 13.1v11.1l-13.5-13.1l-13.5 13.1z" />
</svg>